{"asset":{"version":"2.0","generator":"Unity 2022.3.40f1 glTFast 5.0.4"},"nodes":[{"name":"world","mesh":0,"translation":[0.00770766661,-0.0226703137,0.6229197],"rotation":[0.702172935,-0.08338589,-0.08338589,-0.702172935],"scale":[0.00100000028,0.00100000016,0.00100000016]},{"name":"world","mesh":1,"translation":[0.00770766661,-0.0226703137,0.6229197],"rotation":[0.702172935,-0.08338589,-0.08338589,-0.702172935],"scale":[0.00100000028,0.00100000016,0.00100000016]},{"name":"world","mesh":2,"translation":[0.00770766661,-0.0226703137,0.6229197],"rotation":[0.702172935,-0.08338589,-0.08338589,-0.702172935],"scale":[0.00100000028,0.00100000016,0.00100000016]},{"name":"world","mesh":3,"translation":[0.00770766661,-0.0226703137,0.6229197],"rotation":[0.702172935,-0.08338589,-0.08338589,-0.702172935],"scale":[0.00100000028,0.00100000016,0.00100000016]},{"name":"world","mesh":4,"translation":[0.00770766661,-0.0226703137,0.6229197],"rotation":[0.702172935,-0.08338589,-0.08338589,-0.702172935],"scale":[0.00100000028,0.00100000016,0.00100000016]},{"name":"world","mesh":5,"translation":[0.00770766661,-0.0226703137,0.6229197],"rotation":[0.702172935,-0.08338589,-0.08338589,-0.702172935],"scale":[0.00100000028,0.00100000016,0.00100000016]},{"name":"world","mesh":6,"translation":[0.00770766661,-0.0226703137,0.6229197],"rotation":[0.702172935,-0.08338589,-0.08338589,-0.702172935],"scale":[0.00100000028,0.00100000016,0.00100000016]},{"name":"world","mesh":7,"translation":[0.00770766661,-0.0226703137,0.6229197],"rotation":[0.702172935,-0.08338589,-0.08338589,-0.702172935],"scale":[0.00100000028,0.00100000016,0.00100000016]},{"name":"world","mesh":8,"translation":[0.00770766661,-0.0226703137,0.6229197],"rotation":[0.702172935,-0.08338589,-0.08338589,-0.702172935],"scale":[0.00100000028,0.00100000016,0.00100000016]},{"name":"world","mesh":9,"translation":[0.00770766661,-0.0226703137,0.6229197],"rotation":[0.702172935,-0.08338589,-0.08338589,-0.702172935],"scale":[0.00100000028,0.00100000016,0.00100000016]},{"name":"world","mesh":10,"translation":[0.00770766661,-0.0226703137,0.6229197],"rotation":[0.702172935,-0.08338589,-0.08338589,-0.702172935],"scale":[0.00100000028,0.00100000016,0.00100000016]},{"name":"world","mesh":11,"translation":[0.00770766661,-0.0226703137,0.6229197],"rotation":[0.702172935,-0.08338589,-0.08338589,-0.702172935],"scale":[0.00100000028,0.00100000016,0.00100000016]},{"name":"world","mesh":12,"translation":[0.00770766661,-0.0226703137,0.6229197],"rotation":[0.702172935,-0.08338589,-0.08338589,-0.702172935],"scale":[0.00100000028,0.00100000016,0.00100000016]},{"name":"world","mesh":13,"translation":[0.00770766661,-0.0226703137,0.6229197],"rotation":[0.702172935,-0.08338589,-0.08338589,-0.702172935],"scale":[0.00100000028,0.00100000016,0.00100000016]},{"name":"world","mesh":14,"translation":[0.09819065,-0.06906071,0.444940716],"rotation":[-0.0639099255,-0.6995947,-0.704212666,0.102797896],"scale":[0.0009999997,0.00100000016,0.001]},{"name":"Translation","children":[0,1,2,3,4,5,6,7,8,9,10,11,12,13,14],"translation":[0,0,-0.6]},{"name":"Rotation","children":[15],"rotation":[0,-0.9396927,0,-0.3420201]},{"name":"Cube","mesh":15,"translation":[0,-0.15,0],"scale":[0.001,0.001,0.001]},{"name":"Tim","children":[16,17]}],"buffers":[{"uri":"Tim.bin","byteLength":2694552}],"bufferViews":[{"buffer":0,"byteLength":9600},{"buffer":0,"byteLength":12864,"byteOffset":9600,"byteStride":32},{"buffer":0,"byteLength":49608,"byteOffset":22464},{"buffer":0,"byteLength":67296,"byteOffset":72072,"byteStride":32},{"buffer":0,"byteLength":89592,"byteOffset":139368},{"buffer":0,"byteLength":119648,"byteOffset":228960,"byteStride":32},{"buffer":0,"byteLength":99432,"byteOffset":348608},{"buffer":0,"byteLength":133792,"byteOffset":448040,"byteStride":32},{"buffer":0,"byteLength":27912,"byteOffset":581832},{"buffer":0,"byteLength":37280,"byteOffset":609744,"byteStride":32},{"buffer":0,"byteLength":10008,"byteOffset":647024},{"buffer":0,"byteLength":13536,"byteOffset":657032,"byteStride":32},{"buffer":0,"byteLength":12600,"byteOffset":670568},{"buffer":0,"byteLength":16928,"byteOffset":683168,"byteStride":32},{"buffer":0,"byteLength":14328,"byteOffset":700096},{"buffer":0,"byteLength":19296,"byteOffset":714424,"byteStride":32},{"buffer":0,"byteLength":24360,"byteOffset":733720},{"buffer":0,"byteLength":32608,"byteOffset":758080,"byteStride":32},{"buffer":0,"byteLength":11400,"byteOffset":790688},{"buffer":0,"byteLength":15456,"byteOffset":802088,"byteStride":32},{"buffer":0,"byteLength":16872,"byteOffset":817544},{"buffer":0,"byteLength":22624,"byteOffset":834416,"byteStride":32},{"buffer":0,"byteLength":15768,"byteOffset":857040},{"buffer":0,"byteLength":21152,"byteOffset":872808,"byteStride":32},{"buffer":0,"byteLength":15528,"byteOffset":893960},{"buffer":0,"byteLength":20832,"byteOffset":909488,"byteStride":32},{"buffer":0,"byteLength":35328,"byteOffset":930320},{"buffer":0,"byteLength":47104,"byteOffset":965648,"byteStride":32},{"buffer":0,"byteLength":720000,"byteOffset":1012752},{"buffer":0,"byteLength":960384,"byteOffset":1732752,"byteStride":32},{"buffer":0,"byteLength":72,"byteOffset":2693136},{"buffer":0,"byteLength":1344,"byteOffset":2693208,"byteStride":56}],"accessors":[{"bufferView":1,"componentType":5126,"count":402,"type":"VEC3","max":[1.35313916,28.7792587,17.6977882],"min":[-3.108884,0.02289486,0.179877281]},{"bufferView":1,"componentType":5126,"count":402,"type":"VEC3","byteOffset":12},{"bufferView":1,"componentType":5126,"count":402,"type":"VEC2","byteOffset":24},{"bufferView":0,"componentType":5125,"count":2400,"type":"SCALAR"},{"bufferView":3,"componentType":5126,"count":2103,"type":"VEC3","max":[35.24858,48.7824974,37.3881531],"min":[-34.6189575,-41.54102,-12.1850252]},{"bufferView":3,"componentType":5126,"count":2103,"type":"VEC3","byteOffset":12},{"bufferView":3,"componentType":5126,"count":2103,"type":"VEC2","byteOffset":24},{"bufferView":2,"componentType":5125,"count":12402,"type":"SCALAR"},{"bufferView":5,"componentType":5126,"count":3739,"type":"VEC3","max":[37.4256668,58.3538361,35.41767],"min":[-42.48114,-15.3136063,-55.0938568]},{"bufferView":5,"componentType":5126,"count":3739,"type":"VEC3","byteOffset":12},{"bufferView":5,"componentType":5126,"count":3739,"type":"VEC2","byteOffset":24},{"bufferView":4,"componentType":5125,"count":22398,"type":"SCALAR"},{"bufferView":7,"componentType":5126,"count":4181,"type":"VEC3","max":[62.93405,87.84869,84.8097458],"min":[-65.43086,-64.8902054,-55.7289963]},{"bufferView":7,"componentType":5126,"count":4181,"type":"VEC3","byteOffset":12},{"bufferView":7,"componentType":5126,"count":4181,"type":"VEC2","byteOffset":24},{"bufferView":6,"componentType":5125,"count":24858,"type":"SCALAR"},{"bufferView":9,"componentType":5126,"count":1165,"type":"VEC3","max":[16.6408463,16.0112038,12.3974953],"min":[-15.11771,-14.6127672,-54.16914]},{"bufferView":9,"componentType":5126,"count":1165,"type":"VEC3","byteOffset":12},{"bufferView":9,"componentType":5126,"count":1165,"type":"VEC2","byteOffset":24},{"bufferView":8,"componentType":5125,"count":6978,"type":"SCALAR"},{"bufferView":11,"componentType":5126,"count":423,"type":"VEC3","max":[14.151207,0.306879044,7.74459457],"min":[-9.476873,-23.38674,-39.0942764]},{"bufferView":11,"componentType":5126,"count":423,"type":"VEC3","byteOffset":12},{"bufferView":11,"componentType":5126,"count":423,"type":"VEC2","byteOffset":24},{"bufferView":10,"componentType":5125,"count":2502,"type":"SCALAR"},{"bufferView":13,"componentType":5126,"count":529,"type":"VEC3","max":[29.5368729,29.2639275,6.946335],"min":[-30.0811958,13.8525009,-13.865715]},{"bufferView":13,"componentType":5126,"count":529,"type":"VEC3","byteOffset":12},{"bufferView":13,"componentType":5126,"count":529,"type":"VEC2","byteOffset":24},{"bufferView":12,"componentType":5125,"count":3150,"type":"SCALAR"},{"bufferView":15,"componentType":5126,"count":603,"type":"VEC3","max":[16.1945362,49.0565376,37.9988861],"min":[-19.9779682,-4.44587326,8.739649]},{"bufferView":15,"componentType":5126,"count":603,"type":"VEC3","byteOffset":12},{"bufferView":15,"componentType":5126,"count":603,"type":"VEC2","byteOffset":24},{"bufferView":14,"componentType":5125,"count":3582,"type":"SCALAR"},{"bufferView":17,"componentType":5126,"count":1019,"type":"VEC3","max":[35.6355972,23.0996475,17.5813522],"min":[-34.9116974,-14.5242615,-13.8902187]},{"bufferView":17,"componentType":5126,"count":1019,"type":"VEC3","byteOffset":12},{"bufferView":17,"componentType":5126,"count":1019,"type":"VEC2","byteOffset":24},{"bufferView":16,"componentType":5125,"count":6090,"type":"SCALAR"},{"bufferView":19,"componentType":5126,"count":483,"type":"VEC3","max":[13.0290537,44.87806,16.09214],"min":[-15.822114,28.3668976,1.86042023]},{"bufferView":19,"componentType":5126,"count":483,"type":"VEC3","byteOffset":12},{"bufferView":19,"componentType":5126,"count":483,"type":"VEC2","byteOffset":24},{"bufferView":18,"componentType":5125,"count":2850,"type":"SCALAR"},{"bufferView":21,"componentType":5126,"count":707,"type":"VEC3","max":[24.2648125,32.7989426,21.8134632],"min":[-25.7425385,11.0833492,6.09876442]},{"bufferView":21,"componentType":5126,"count":707,"type":"VEC3","byteOffset":12},{"bufferView":21,"componentType":5126,"count":707,"type":"VEC2","byteOffset":24},{"bufferView":20,"componentType":5125,"count":4218,"type":"SCALAR"},{"bufferView":23,"componentType":5126,"count":661,"type":"VEC3","max":[30.5225582,44.44294,29.9991722],"min":[-32.7424164,4.63612938,0.635464668]},{"bufferView":23,"componentType":5126,"count":661,"type":"VEC3","byteOffset":12},{"bufferView":23,"componentType":5126,"count":661,"type":"VEC2","byteOffset":24},{"bufferView":22,"componentType":5125,"count":3942,"type":"SCALAR"},{"bufferView":25,"componentType":5126,"count":651,"type":"VEC3","max":[22.2196312,26.1029034,31.47218],"min":[-23.7012939,-9.65069,5.565036]},{"bufferView":25,"componentType":5126,"count":651,"type":"VEC3","byteOffset":12},{"bufferView":25,"componentType":5126,"count":651,"type":"VEC2","byteOffset":24},{"bufferView":24,"componentType":5125,"count":3882,"type":"SCALAR"},{"bufferView":27,"componentType":5126,"count":1472,"type":"VEC3","max":[26.10656,28.97225,13.07962],"min":[-26.6558914,-2.83501625,-6.80426931]},{"bufferView":27,"componentType":5126,"count":1472,"type":"VEC3","byteOffset":12},{"bufferView":27,"componentType":5126,"count":1472,"type":"VEC2","byteOffset":24},{"bufferView":26,"componentType":5125,"count":8832,"type":"SCALAR"},{"bufferView":29,"componentType":5126,"count":30012,"type":"VEC3","max":[206.761978,230.247162,148.747864],"min":[45.5756073,26.7536011,0.244308472]},{"bufferView":29,"componentType":5126,"count":30012,"type":"VEC3","byteOffset":12},{"bufferView":29,"componentType":5126,"count":30012,"type":"VEC2","byteOffset":24},{"bufferView":28,"componentType":5125,"count":180000,"type":"SCALAR"},{"bufferView":31,"componentType":5126,"count":24,"type":"VEC3","max":[0.5,0.5,0.5],"min":[-0.5,-0.5,-0.5]},{"bufferView":31,"componentType":5126,"count":24,"type":"VEC3","byteOffset":12},{"bufferView":31,"componentType":5126,"count":24,"type":"VEC4","byteOffset":24},{"bufferView":31,"componentType":5126,"count":24,"type":"VEC2","byteOffset":40},{"bufferView":31,"componentType":5126,"count":24,"type":"VEC2","byteOffset":48},{"bufferView":30,"componentType":5123,"count":36,"type":"SCALAR"}],"materials":[{"name":"SurfaceWithCutting2DMaterial (Instance)","pbrMetallicRoughness":{"baseColorFactor":[0,0.478431374,1,1],"metallicFactor":0},"alphaMode":"MASK"},{"name":"SurfaceWithCutting2DMaterial (Instance)","pbrMetallicRoughness":{"baseColorFactor":[0,0.478431374,1,1],"metallicFactor":0},"alphaMode":"MASK"},{"name":"SurfaceWithCutting2DMaterial (Instance)","pbrMetallicRoughness":{"baseColorFactor":[0.6,0,0,1],"metallicFactor":0},"alphaMode":"MASK"},{"name":"SurfaceWithCutting2DMaterial (Instance)","pbrMetallicRoughness":{"baseColorFactor":[0.09803922,0.09803922,0.4,1],"metallicFactor":0},"alphaMode":"MASK"},{"name":"SurfaceWithCutting2DMaterial (Instance)","pbrMetallicRoughness":{"baseColorFactor":[0.694117665,0.545098066,0.545098066,1],"metallicFactor":0},"alphaMode":"MASK"},{"name":"SurfaceWithCutting2DMaterial (Instance)","pbrMetallicRoughness":{"baseColorFactor":[0,0.478431374,1,1],"metallicFactor":0},"alphaMode":"MASK"},{"name":"SurfaceWithCutting2DMaterial (Instance)","pbrMetallicRoughness":{"baseColorFactor":[0.623386741,0.4034059,0.8274998,1],"metallicFactor":0},"alphaMode":"MASK"},{"name":"SurfaceWithCutting2DMaterial (Instance)","pbrMetallicRoughness":{"baseColorFactor":[0,1,0.7441165,1],"metallicFactor":0},"alphaMode":"MASK"},{"name":"SurfaceWithCutting2DMaterial (Instance)","pbrMetallicRoughness":{"baseColorFactor":[0.278456718,0.0623439252,0.4375,1],"metallicFactor":0},"alphaMode":"MASK"},{"name":"SurfaceWithCutting2DMaterial (Instance)","pbrMetallicRoughness":{"baseColorFactor":[0.622499466,1,0.926720858,1],"metallicFactor":0},"alphaMode":"MASK"},{"name":"SurfaceWithCutting2DMaterial (Instance)","pbrMetallicRoughness":{"baseColorFactor":[0.272901,0.1719277,0.1719277,1],"metallicFactor":0},"alphaMode":"MASK"},{"name":"SurfaceWithCutting2DMaterial (Instance)","pbrMetallicRoughness":{"baseColorFactor":[0.7979006,0.7429099,0.616377831,1],"metallicFactor":0},"alphaMode":"MASK"},{"name":"SurfaceWithCutting2DMaterial (Instance)","pbrMetallicRoughness":{"baseColorFactor":[0.0208741,0.308945954,0.3479006,1],"metallicFactor":0},"alphaMode":"MASK"},{"name":"SurfaceWithCutting2DMaterial (Instance)","pbrMetallicRoughness":{"baseColorFactor":[0.5129004,0.250038922,0.250038922,1],"metallicFactor":0},"alphaMode":"MASK"},{"name":"SurfaceWithCutting2DMaterial (Instance)","pbrMetallicRoughness":{"baseColorFactor":[1,0.7882353,0.7372549,0.164912343],"metallicFactor":0},"alphaMode":"BLEND"},{"name":"Default-Material","pbrMetallicRoughness":{"metallicFactor":0,"roughnessFactor":0.5}}],"meshes":[{"name":"world Instance","primitives":[{"attributes":{"POSITION":0,"NORMAL":1,"TEXCOORD_0":2},"indices":3,"material":0}]},{"name":"world Instance","primitives":[{"attributes":{"POSITION":4,"NORMAL":5,"TEXCOORD_0":6},"indices":7,"material":1}]},{"name":"world Instance","primitives":[{"attributes":{"POSITION":8,"NORMAL":9,"TEXCOORD_0":10},"indices":11,"material":2}]},{"name":"world Instance","primitives":[{"attributes":{"POSITION":12,"NORMAL":13,"TEXCOORD_0":14},"indices":15,"material":3}]},{"name":"world Instance","primitives":[{"attributes":{"POSITION":16,"NORMAL":17,"TEXCOORD_0":18},"indices":19,"material":4}]},{"name":"world Instance","primitives":[{"attributes":{"POSITION":20,"NORMAL":21,"TEXCOORD_0":22},"indices":23,"material":5}]},{"name":"world Instance","primitives":[{"attributes":{"POSITION":24,"NORMAL":25,"TEXCOORD_0":26},"indices":27,"material":6}]},{"name":"world Instance","primitives":[{"attributes":{"POSITION":28,"NORMAL":29,"TEXCOORD_0":30},"indices":31,"material":7}]},{"name":"world Instance","primitives":[{"attributes":{"POSITION":32,"NORMAL":33,"TEXCOORD_0":34},"indices":35,"material":8}]},{"name":"world Instance","primitives":[{"attributes":{"POSITION":36,"NORMAL":37,"TEXCOORD_0":38},"indices":39,"material":9}]},{"name":"world Instance","primitives":[{"attributes":{"POSITION":40,"NORMAL":41,"TEXCOORD_0":42},"indices":43,"material":10}]},{"name":"world Instance","primitives":[{"attributes":{"POSITION":44,"NORMAL":45,"TEXCOORD_0":46},"indices":47,"material":11}]},{"name":"world Instance","primitives":[{"attributes":{"POSITION":48,"NORMAL":49,"TEXCOORD_0":50},"indices":51,"material":12}]},{"name":"world Instance","primitives":[{"attributes":{"POSITION":52,"NORMAL":53,"TEXCOORD_0":54},"indices":55,"material":13}]},{"name":"world Instance","primitives":[{"attributes":{"POSITION":56,"NORMAL":57,"TEXCOORD_0":58},"indices":59,"material":14}]},{"name":"Cube","primitives":[{"attributes":{"POSITION":60,"NORMAL":61,"TANGENT":62,"TEXCOORD_0":63,"TEXCOORD_1":64},"indices":65,"material":15}]}],"scene":0,"scenes":[{"name":"Tim","nodes":[18]}]}