{"scene":0,"scenes":[{"nodes":[0]}],"asset":{"version":"2.0","generator":"https://github.com/mikedh/trimesh"},"accessors":[{"bufferView":0,"componentType":5125,"count":3427830,"max":[578389],"min":[0],"type":"SCALAR"},{"bufferView":1,"componentType":5126,"count":578390,"type":"VEC3","byteOffset":0,"max":[255.5,255.5,152.49972534179688],"min":[0.0,0.0,0.0]}],"meshes":[{"name":"skin.stl","primitives":[{"attributes":{"POSITION":1},"indices":0,"mode":4}]}],"samplers":[{}],"nodes":[{"name":"world","children":[1]},{"name":"skin.stl","mesh":0}],"buffers":[{"uri":"gltf_buffer.bin","byteLength":20652000}],"bufferViews":[{"buffer":0,"byteOffset":0,"byteLength":13711320},{"buffer":0,"byteOffset":13711320,"byteLength":6940680}]}