{"scene":0,"scenes":[{"nodes":[0]}],"asset":{"version":"2.0","generator":"https://github.com/mikedh/trimesh"},"accessors":[{"bufferView":0,"componentType":5125,"count":15360,"max":[2561],"min":[0],"type":"SCALAR"},{"bufferView":1,"componentType":5126,"count":2562,"type":"VEC3","byteOffset":0,"max":[194.9755859375,214.4803009033203,133.4364013671875],"min":[59.55116271972656,47.032684326171875,7.753296375274658]}],"meshes":[{"name":"skullInterior.stl","primitives":[{"attributes":{"POSITION":1},"indices":0,"mode":4}]}],"samplers":[{}],"nodes":[{"name":"world","children":[1]},{"name":"skullInterior.stl","mesh":0}],"buffers":[{"uri":"gltf_buffer.bin","byteLength":92184}],"bufferViews":[{"buffer":0,"byteOffset":0,"byteLength":61440},{"buffer":0,"byteOffset":61440,"byteLength":30744}]}