{
    "asset" : {
        "generator" : "Khronos glTF Blender I/O v1.2.75",
        "version" : "2.0"
    },
    "scene" : 0,
    "scenes" : [
        {
            "name" : "Scene",
            "nodes" : [
                0
            ]
        }
    ],
    "nodes" : [
        {
            "mesh" : 0,
            "name" : "skullInterior"
        }
    ],
    "meshes" : [
        {
            "name" : "skullInterior.001",
            "primitives" : [
                {
                    "attributes" : {
                        "POSITION" : 0,
                        "NORMAL" : 1
                    },
                    "indices" : 2
                }
            ]
        }
    ],
    "accessors" : [
        {
            "bufferView" : 0,
            "componentType" : 5126,
            "count" : 15360,
            "max" : [
                194.9755859375,
                133.4364013671875,
                -47.032684326171875
            ],
            "min" : [
                59.55116271972656,
                7.753296375274658,
                -214.4803009033203
            ],
            "type" : "VEC3"
        },
        {
            "bufferView" : 1,
            "componentType" : 5126,
            "count" : 15360,
            "type" : "VEC3"
        },
        {
            "bufferView" : 2,
            "componentType" : 5123,
            "count" : 15360,
            "type" : "SCALAR"
        }
    ],
    "bufferViews" : [
        {
            "buffer" : 0,
            "byteLength" : 184320,
            "byteOffset" : 0
        },
        {
            "buffer" : 0,
            "byteLength" : 184320,
            "byteOffset" : 184320
        },
        {
            "buffer" : 0,
            "byteLength" : 30720,
            "byteOffset" : 368640
        }
    ],
    "buffers" : [
        {
            "byteLength" : 399360,
            "uri" : "untitled.bin"
        }
    ]
}
