{"scene":0,"scenes":[{"nodes":[0]}],"asset":{"version":"2.0","generator":"https://github.com/mikedh/trimesh"},"accessors":[{"bufferView":0,"componentType":5125,"count":60000,"max":[10290],"min":[0],"type":"SCALAR"},{"bufferView":1,"componentType":5126,"count":10291,"type":"VEC3","byteOffset":0,"max":[255.49932861328125,255.49183654785156,150.8182830810547],"min":[-1.6869825003595906e-06,-1.8474210037311423e-06,-0.055516235530376434]}],"meshes":[{"name":"skin_Simplified.stl","primitives":[{"attributes":{"POSITION":1},"indices":0,"mode":4}]}],"samplers":[{}],"nodes":[{"name":"world","children":[1]},{"name":"skin_Simplified.stl","mesh":0}],"buffers":[{"uri":"gltf_buffer.bin","byteLength":363492}],"bufferViews":[{"buffer":0,"byteOffset":0,"byteLength":240000},{"buffer":0,"byteOffset":240000,"byteLength":123492}]}