{"scene":0,"scenes":[{"nodes":[0]}],"asset":{"version":"2.0","generator":"https://github.com/mikedh/trimesh"},"accessors":[{"bufferView":0,"componentType":5125,"count":1860066,"max":[310645],"min":[0],"type":"SCALAR"},{"bufferView":1,"componentType":5126,"count":310646,"type":"VEC3","byteOffset":0,"max":[193.09361267089844,211.1711883544922,132.0513458251953],"min":[61.391357421875,49.75006866455078,10.417821884155273]}],"meshes":[{"name":"vessels.stl","primitives":[{"attributes":{"POSITION":1},"indices":0,"mode":4}]}],"samplers":[{}],"nodes":[{"name":"world","children":[1]},{"name":"vessels.stl","mesh":0}],"buffers":[{"uri":"gltf_buffer.bin","byteLength":11168016}],"bufferViews":[{"buffer":0,"byteOffset":0,"byteLength":7440264},{"buffer":0,"byteOffset":7440264,"byteLength":3727752}]}