{"scene":0,"scenes":[{"nodes":[0]}],"asset":{"version":"2.0","generator":"https://github.com/mikedh/trimesh"},"accessors":[{"bufferView":0,"componentType":5125,"count":60000,"max":[9952],"min":[0],"type":"SCALAR"},{"bufferView":1,"componentType":5126,"count":9953,"type":"VEC3","byteOffset":0,"max":[192.8104705810547,211.1786651611328,131.87440490722656],"min":[62.4079475402832,50.10059356689453,12.308355331420898]}],"meshes":[{"name":"vessels_Simplified.stl","primitives":[{"attributes":{"POSITION":1},"indices":0,"mode":4}]}],"samplers":[{}],"nodes":[{"name":"world","children":[1]},{"name":"vessels_Simplified.stl","mesh":0}],"buffers":[{"uri":"gltf_buffer.bin","byteLength":359436}],"bufferViews":[{"buffer":0,"byteOffset":0,"byteLength":240000},{"buffer":0,"byteOffset":240000,"byteLength":119436}]}