{"scene":0,"scenes":[{"nodes":[0]}],"asset":{"version":"2.0","generator":"https://github.com/mikedh/trimesh"},"accessors":[{"bufferView":0,"componentType":5125,"count":60000,"max":[10007],"min":[0],"type":"SCALAR"},{"bufferView":1,"componentType":5126,"count":10008,"type":"VEC3","byteOffset":0,"max":[174.75311279296875,119.32106018066406,116.74976348876953],"min":[121.19967651367188,75.08290100097656,66.76446533203125]}],"meshes":[{"name":"tumor_Simplified.stl","primitives":[{"attributes":{"POSITION":1},"indices":0,"mode":4}]}],"samplers":[{}],"nodes":[{"name":"world","children":[1]},{"name":"tumor_Simplified.stl","mesh":0}],"buffers":[{"uri":"gltf_buffer.bin","byteLength":360096}],"bufferViews":[{"buffer":0,"byteOffset":0,"byteLength":240000},{"buffer":0,"byteOffset":240000,"byteLength":120096}]}