{
    "asset" : {
        "generator" : "Khronos glTF Blender I/O v1.2.75",
        "version" : "2.0"
    },
    "scene" : 0,
    "scenes" : [
        {
            "name" : "Scene",
            "nodes" : [
                0
            ]
        }
    ],
    "nodes" : [
        {
            "mesh" : 0,
            "name" : "tumor Simplified"
        }
    ],
    "meshes" : [
        {
            "name" : "tumor Simplified.002",
            "primitives" : [
                {
                    "attributes" : {
                        "POSITION" : 0,
                        "NORMAL" : 1
                    },
                    "indices" : 2
                }
            ]
        }
    ],
    "accessors" : [
        {
            "bufferView" : 0,
            "componentType" : 5126,
            "count" : 59927,
            "max" : [
                174.75311279296875,
                116.74976348876953,
                -75.08290100097656
            ],
            "min" : [
                121.19967651367188,
                66.76446533203125,
                -119.32106018066406
            ],
            "type" : "VEC3"
        },
        {
            "bufferView" : 1,
            "componentType" : 5126,
            "count" : 59927,
            "type" : "VEC3"
        },
        {
            "bufferView" : 2,
            "componentType" : 5123,
            "count" : 60000,
            "type" : "SCALAR"
        }
    ],
    "bufferViews" : [
        {
            "buffer" : 0,
            "byteLength" : 719124,
            "byteOffset" : 0
        },
        {
            "buffer" : 0,
            "byteLength" : 719124,
            "byteOffset" : 719124
        },
        {
            "buffer" : 0,
            "byteLength" : 120000,
            "byteOffset" : 1438248
        }
    ],
    "buffers" : [
        {
            "byteLength" : 1558248,
            "uri" : "untitled.bin"
        }
    ]
}
