{"scene":0,"scenes":[{"nodes":[0]}],"asset":{"version":"2.0","generator":"https://github.com/mikedh/trimesh"},"accessors":[{"bufferView":0,"componentType":5125,"count":276576,"max":[46105],"min":[0],"type":"SCALAR"},{"bufferView":1,"componentType":5126,"count":46106,"type":"VEC3","byteOffset":0,"max":[174.7499237060547,119.31228637695312,116.74972534179688],"min":[121.19967651367188,75.08182525634766,66.76446533203125]}],"meshes":[{"name":"tumor.stl","primitives":[{"attributes":{"POSITION":1},"indices":0,"mode":4}]}],"samplers":[{}],"nodes":[{"name":"world","children":[1]},{"name":"tumor.stl","mesh":0}],"buffers":[{"uri":"gltf_buffer.bin","byteLength":1659576}],"bufferViews":[{"buffer":0,"byteOffset":0,"byteLength":1106304},{"buffer":0,"byteOffset":1106304,"byteLength":553272}]}