{"scene":0,"scenes":[{"nodes":[0]}],"asset":{"version":"2.0","generator":"https://github.com/mikedh/trimesh"},"accessors":[{"bufferView":0,"componentType":5125,"count":4618470,"max":[769964],"min":[0],"type":"SCALAR"},{"bufferView":1,"componentType":5126,"count":769965,"type":"VEC3","byteOffset":0,"max":[194.1514434814453,213.86904907226562,132.98715209960938],"min":[60.25006866455078,47.586143493652344,6.187057018280029]}],"meshes":[{"name":"grayMatter.stl","primitives":[{"attributes":{"POSITION":1},"indices":0,"mode":4}]}],"samplers":[{}],"nodes":[{"name":"world","children":[1]},{"name":"grayMatter.stl","mesh":0}],"buffers":[{"uri":"gltf_buffer.bin","byteLength":27713460}],"bufferViews":[{"buffer":0,"byteOffset":0,"byteLength":18473880},{"buffer":0,"byteOffset":18473880,"byteLength":9239580}]}