{"scene":0,"scenes":[{"nodes":[0]}],"asset":{"version":"2.0","generator":"https://github.com/mikedh/trimesh"},"accessors":[{"bufferView":0,"componentType":5125,"count":343092,"max":[57173],"min":[0],"type":"SCALAR"},{"bufferView":1,"componentType":5126,"count":57174,"type":"VEC3","byteOffset":0,"max":[161.09361267089844,193.6514434814453,89.15128326416016],"min":[97.25006866455078,83.25006866455078,52.699581146240234]}],"meshes":[{"name":"ventricle.stl","primitives":[{"attributes":{"POSITION":1},"indices":0,"mode":4}]}],"samplers":[{}],"nodes":[{"name":"world","children":[1]},{"name":"ventricle.stl","mesh":0}],"buffers":[{"uri":"gltf_buffer.bin","byteLength":2058456}],"bufferViews":[{"buffer":0,"byteOffset":0,"byteLength":1372368},{"buffer":0,"byteOffset":1372368,"byteLength":686088}]}