{"scene":0,"scenes":[{"nodes":[0]}],"asset":{"version":"2.0","generator":"https://github.com/mikedh/trimesh"},"accessors":[{"bufferView":0,"componentType":5125,"count":60000,"max":[9989],"min":[0],"type":"SCALAR"},{"bufferView":1,"componentType":5126,"count":9990,"type":"VEC3","byteOffset":0,"max":[161.1292724609375,193.6586151123047,89.160888671875],"min":[0.0,9.499985694885254,52.69975280761719]}],"meshes":[{"name":"ventricle_Simplified.stl","primitives":[{"attributes":{"POSITION":1},"indices":0,"mode":4}]}],"samplers":[{}],"nodes":[{"name":"world","children":[1]},{"name":"ventricle_Simplified.stl","mesh":0}],"buffers":[{"uri":"gltf_buffer.bin","byteLength":359880}],"bufferViews":[{"buffer":0,"byteOffset":0,"byteLength":240000},{"buffer":0,"byteOffset":240000,"byteLength":119880}]}