{"scene":0,"scenes":[{"nodes":[0]}],"asset":{"version":"2.0","generator":"https://github.com/mikedh/trimesh"},"accessors":[{"bufferView":0,"componentType":5125,"count":60000,"max":[9946],"min":[0],"type":"SCALAR"},{"bufferView":1,"componentType":5126,"count":9947,"type":"VEC3","byteOffset":0,"max":[193.88401794433594,213.8671417236328,133.0111083984375],"min":[60.42100143432617,47.60824966430664,5.7870259284973145]}],"meshes":[{"name":"grayMatter_Simplified.stl","primitives":[{"attributes":{"POSITION":1},"indices":0,"mode":4}]}],"samplers":[{}],"nodes":[{"name":"world","children":[1]},{"name":"grayMatter_Simplified.stl","mesh":0}],"buffers":[{"uri":"gltf_buffer.bin","byteLength":359364}],"bufferViews":[{"buffer":0,"byteOffset":0,"byteLength":240000},{"buffer":0,"byteOffset":240000,"byteLength":119364}]}