{
    "asset" : {
        "generator" : "Khronos glTF Blender I/O v1.2.75",
        "version" : "2.0"
    },
    "scene" : 0,
    "scenes" : [
        {
            "name" : "Scene",
            "nodes" : [
                0
            ]
        }
    ],
    "nodes" : [
        {
            "mesh" : 0,
            "name" : "ventricle Simplified"
        }
    ],
    "meshes" : [
        {
            "name" : "ventricle Simplified.001",
            "primitives" : [
                {
                    "attributes" : {
                        "POSITION" : 0,
                        "NORMAL" : 1
                    },
                    "indices" : 2
                }
            ]
        }
    ],
    "accessors" : [
        {
            "bufferView" : 0,
            "componentType" : 5126,
            "count" : 59982,
            "max" : [
                161.1292724609375,
                89.160888671875,
                -83.2345199584961
            ],
            "min" : [
                97.23438262939453,
                52.69975280761719,
                -193.6586151123047
            ],
            "type" : "VEC3"
        },
        {
            "bufferView" : 1,
            "componentType" : 5126,
            "count" : 59982,
            "type" : "VEC3"
        },
        {
            "bufferView" : 2,
            "componentType" : 5123,
            "count" : 59982,
            "type" : "SCALAR"
        }
    ],
    "bufferViews" : [
        {
            "buffer" : 0,
            "byteLength" : 719784,
            "byteOffset" : 0
        },
        {
            "buffer" : 0,
            "byteLength" : 719784,
            "byteOffset" : 719784
        },
        {
            "buffer" : 0,
            "byteLength" : 119964,
            "byteOffset" : 1439568
        }
    ],
    "buffers" : [
        {
            "byteLength" : 1559532,
            "uri" : "untitled.bin"
        }
    ]
}
